<svg version="1.1" xmlns="http://www.w3.org/2000/svg" xmlns:xlink="http://www.w3.org/1999/xlink" x="0px" y="0px"
	 viewBox="0 0 65.1 15.4" enable-background="new 0 0 65.1 15.4" xml:space="preserve">
<g>
	<g>
		<g>
			<g>
				<g>
					<g>
						<path fill="#988B7D" d="M15.4,9.3c0-1.6-0.8-3.2-2-4.2c0.1,0.3,0.1,0.7,0.1,1c0,1.9-0.9,3.4-2,4.3c-0.6,0.5-1.1,0.8-1.8,0.8
							c-1,0-1.9-0.8-1.9-1.9c0-1-0.8-1.9-1.9-1.9c-1,0-1.9,0.8-1.9,1.9c0,3.1,2.5,5.6,5.6,5.6c2.2,0,4-1.3,4.8-2.8
							C15.2,11.2,15.4,10.2,15.4,9.3z"/>
						<path fill="#87B0D0" d="M3.3,14.2c1.4,0.8,3.2,1,4.6,0.4c-0.3-0.1-0.6-0.3-0.9-0.4c-1.6-0.9-2.4-2.5-2.7-3.8
							C4.2,9.6,4.1,9,4.5,8.4C5,7.5,6.1,7.2,7,7.7C7.9,8.2,9,7.9,9.5,7c0.5-0.9,0.2-2-0.7-2.5c-2.7-1.6-6.1-0.6-7.6,2
							c-1.1,1.9-0.9,4.1,0,5.6C1.8,13.1,2.6,13.8,3.3,14.2z"/>
						<path fill="#E9E3DF" d="M5.2,1.3C3.7,2.1,2.7,3.5,2.5,5.1C2.7,4.9,3,4.7,3.3,4.5c1.6-0.9,3.4-0.9,4.6-0.4
							c0.7,0.3,1.3,0.5,1.6,1.1c0.5,0.9,0.2,2-0.7,2.5C8,8.2,7.7,9.4,8.2,10.3c0.5,0.9,1.7,1.2,2.5,0.7c2.7-1.6,3.6-5,2-7.6
							c-1.1-1.9-3.1-2.8-4.8-2.8C6.9,0.5,5.9,0.8,5.2,1.3z"/>
						<path fill="#B0A498" d="M6.6,12.5c-0.8-0.8-1.2-1.8-1.3-2.9c0-0.1,0-0.4,0-0.4c0-0.6,0.5-1.1,1.1-1.1c0.6,0,1,0.4,1.1,1
							C7.4,8.5,6.8,8,6.1,8C5.3,8,4.8,8.6,4.7,9.3c0,0,0,0,0,0c0,2.8,2.3,5.1,5,5.1c2.8,0,5.1-2.3,5.1-5.1c0-1-0.3-2-0.8-2.7
							c0.7,1.4,0.6,3.2-0.2,4.8c0,0.1-0.1,0.2-0.1,0.3c0,0-0.2,0.3-0.2,0.3c-1.3,1.9-3.9,2.5-6,1.3C7.2,13.1,6.9,12.8,6.6,12.5"/>
						<path fill="#A3C2DB" d="M6.3,14.4c-1.5-0.1-3-1-4-2.5c-0.1-0.1-0.1-0.2-0.2-0.3c0,0-0.1-0.3-0.2-0.4C1,9.1,1.8,6.6,3.8,5.4
							C5.2,4.6,6.7,4.6,8,5.2c0.1,0,0.3,0.2,0.3,0.2c0.5,0.3,0.7,1,0.4,1.5C8.5,7.4,7.9,7.5,7.4,7.3C8,7.6,8.7,7.4,9.1,6.8
							C9.5,6.1,9.2,5.3,8.6,5c0,0,0,0,0,0C6.2,3.5,3.1,4.4,1.7,6.8c-1.4,2.4-0.6,5.5,1.8,6.9C4.4,14.2,5.4,14.4,6.3,14.4z"/>
						<path fill="#FAF7F5" d="M3.5,3.8c0.9-1.3,2.4-2.1,4.2-2.2c0.1,0,0.2,0,0.3,0c0,0,0.3,0,0.4,0c2.3,0.2,4.1,2.2,4.1,4.5
							c0,1.6-0.8,2.9-2,3.8c-0.1,0.1-0.3,0.2-0.3,0.2C9.7,10.3,9,10.2,8.7,9.7C8.5,9.2,8.6,8.6,9,8.2C8.5,8.6,8.3,9.4,8.6,10
							c0.4,0.6,1.2,0.9,1.8,0.5c0,0,0,0,0,0c2.4-1.4,3.2-4.5,1.8-6.9c-1.4-2.4-4.5-3.3-6.9-1.9C4.5,2.2,3.9,3,3.5,3.8z"/>
						<path fill="#53493E" d="M13.9,4.8c-0.1-0.6-0.4-1.2-0.7-1.8C11.9,0.8,9.6,0,7.9,0c-1,0-2.1,0.3-3,0.8C3.4,1.7,2.4,3.2,2,4.8
							C1.5,5.2,1.1,5.7,0.8,6.3c-1.3,2.3-0.8,4.6,0,6.1c0.5,0.9,1.3,1.7,2.2,2.2c1.5,0.9,3.3,1,4.9,0.5c0.6,0.2,1.2,0.3,1.9,0.3
							c2.6,0,4.4-1.6,5.3-3.1c0.5-0.9,0.8-2,0.8-3C15.9,7.6,15.1,6,13.9,4.8z M5.4,1.7C6.2,1.3,7.1,1,7.9,1c1.4,0,3.3,0.7,4.4,2.5
							c1.4,2.4,0.6,5.5-1.9,6.9C9.8,10.9,9,10.7,8.6,10C8.4,9.5,8.3,8.7,9.1,8.2C9.5,8,9.8,7.7,10,7.3c0.7-1.1,0.3-2.6-0.9-3.3
							C7.3,3,5.2,3,3.4,3.8C3.9,3,4.6,2.2,5.4,1.7z M6.4,14.4c-1,0.1-2-0.2-2.8-0.7c-0.8-0.4-1.4-1.1-1.8-1.9
							c-0.7-1.2-1.1-3.2,0-5.1c1.4-2.4,4.5-3.3,6.9-1.9c0.6,0.4,0.9,1.2,0.5,1.8C8.7,7.4,7.9,7.6,7.3,7.3C6.9,7.1,6.5,7,6.1,7
							C4.8,7,3.7,8,3.7,9.3C3.7,11.4,4.8,13.3,6.4,14.4L6.4,14.4z M14.2,11.9c-0.7,1.2-2.2,2.5-4.4,2.5c-2.8,0-5.1-2.3-5.1-5.1
							C4.7,8.6,5.3,8,6.1,8c0.7,0,1.3,0.6,1.3,1.3c0,0.5,0.1,0.9,0.3,1.2c0.7,1.1,2.1,1.5,3.2,0.9c1.8-1,2.9-2.9,3-4.9
							c0.5,0.8,0.8,1.8,0.8,2.8C14.8,10.2,14.6,11.1,14.2,11.9z"/>
					</g>
				</g>
			</g>
			<g>
				<g>
					<path fill="#E9E3DF" d="M20.8,5.3c0-0.2-0.1-0.2-0.2-0.2h-0.4V4h1.2c0.5,0,0.7,0.2,0.7,0.7v1.5c0,0.3,0,0.4,0,0.4h0
						c0,0,0.5-0.7,1.6-0.7c1.4,0,2.3,1.1,2.3,2.8c0,1.7-1,2.8-2.4,2.8c-1.1,0-1.6-0.7-1.6-0.7h0c0,0,0,0.1,0,0.4v0.3h-1.2V5.3z
						 M23.4,10.3c0.7,0,1.3-0.6,1.3-1.6c0-1-0.5-1.7-1.3-1.7c-0.7,0-1.3,0.5-1.3,1.7C22.1,9.5,22.5,10.3,23.4,10.3z"/>
					<path fill="#E9E3DF" d="M29.3,5.9c1.5,0,2.3,1.1,2.3,2.5c0,0.2,0,0.5,0,0.5H28c0.1,0.9,0.8,1.4,1.6,1.4c0.8,0,1.5-0.6,1.5-0.6
						l0.5,0.9c0,0-0.8,0.8-2.1,0.8c-1.7,0-2.8-1.3-2.8-2.8C26.6,7.1,27.7,5.9,29.3,5.9z M30.3,8c0-0.6-0.5-1.1-1-1.1
						c-0.7,0-1.1,0.4-1.3,1.1H30.3z"/>
					<path fill="#E9E3DF" d="M35.5,8.2h0.3V8.1c0-1.2-0.4-1.7-1.5-1.7c-0.3,0-1.1,0.1-1.1,0.5v0.4h-0.4V6.8c0-0.6,1.2-0.8,1.6-0.8
						c1.6,0,1.9,0.9,1.9,2v2.7c0,0.2,0.1,0.2,0.2,0.2h0.4v0.4h-0.5c-0.4,0-0.6-0.2-0.6-0.6c0-0.3,0-0.5,0-0.5h0c0,0-0.4,1.2-1.8,1.2
						c-0.8,0-1.7-0.5-1.7-1.5C32.3,8.2,34.6,8.2,35.5,8.2z M34.1,11.1c1.1,0,1.8-1.2,1.8-2.2V8.6h-0.3c-0.9,0-2.7,0-2.7,1.3
						C32.8,10.5,33.2,11.1,34.1,11.1z"/>
					<path fill="#E9E3DF" d="M37.9,7.4c0-0.2-0.1-0.2-0.2-0.2h-0.4V6.1h1.2c0.5,0,0.7,0.2,0.7,0.6v0.2c0,0.1,0,0.2,0,0.2h0
						c0.2-0.5,0.9-1.1,1.7-1.1c0.8,0,1.3,0.4,1.5,1.1h0c0.3-0.6,1-1.1,1.8-1.1c1.1,0,1.7,0.6,1.7,2V10c0,0.1,0.1,0.2,0.2,0.2h0.4
						v1.1h-1.2c-0.5,0-0.7-0.2-0.7-0.7V8.2c0-0.6-0.1-1.1-0.7-1.1c-0.6,0-1.1,0.5-1.3,1.2c-0.1,0.2-0.1,0.4-0.1,0.7v2.3h-1.3V8.2
						c0-0.6-0.1-1.1-0.7-1.1c-0.7,0-1.1,0.5-1.3,1.2c-0.1,0.2-0.1,0.4-0.1,0.7v2.3h-1.3V7.4z"/>
					<path fill="#E9E3DF" d="M47.4,7.4c0-0.2-0.1-0.2-0.2-0.2h-0.4V6.1H48c0.5,0,0.7,0.2,0.7,0.7v2.4c0,0.6,0.2,1.1,0.8,1.1
						c0.9,0,1.5-0.8,1.5-1.8V6.1h1.3V10c0,0.1,0.1,0.2,0.2,0.2h0.4v1.1h-1.2c-0.5,0-0.7-0.2-0.7-0.6v-0.1c0-0.1,0-0.2,0-0.2h0
						c-0.2,0.5-0.9,1.1-1.8,1.1c-1.1,0-1.8-0.6-1.8-2V7.4z"/>
					<path fill="#E9E3DF" d="M54,9.7c0,0,0.7,0.8,1.6,0.8c0.4,0,0.7-0.2,0.7-0.5c0-0.7-2.8-0.7-2.8-2.4c0-1.1,0.9-1.5,2-1.5
						c0.7,0,1.8,0.2,1.8,1.1v0.5h-1.2V7.3c0-0.2-0.4-0.4-0.7-0.4c-0.5,0-0.8,0.2-0.8,0.5c0,0.8,2.8,0.7,2.8,2.4c0,1-0.9,1.6-2,1.6
						c-1.4,0-2.2-0.9-2.2-0.9L54,9.7z"/>
					<path fill="#E9E3DF" d="M58.7,7.1H58v-1h0.7V4.6H60v1.4h1.2v1H60v2.1c0,0.9,0.7,1,1,1c0.1,0,0.2,0,0.2,0v1.1c0,0-0.2,0-0.4,0
						c-0.7,0-2.2-0.2-2.2-2V7.1z"/>
				</g>
			</g>
		</g>
		<g>
			<path fill="#E9E3DF" d="M62.7,4.9h-0.2c0,0,0,0,0,0V5h-0.3V4.8c0-0.1,0-0.1,0.2-0.1h1c0.1,0,0.2,0,0.2,0.1V5h-0.3V4.9
				c0,0,0,0,0,0H63v1.2h-0.3V4.9z M63.5,5.8L63.5,5.8c0.1,0,0.1,0,0.1,0l0.1-1.1h0.3l0.3,0.7c0,0.1,0,0.1,0,0.1h0c0,0,0-0.1,0-0.1
				l0.3-0.7h0.3L65,5.8c0,0,0,0,0,0h0.1v0.3h-0.2c-0.1,0-0.2,0-0.2-0.1l0-0.6c0,0,0-0.1,0-0.1h0l-0.3,0.6h-0.2l-0.3-0.6h0
				c0,0,0,0.1,0,0.1l0,0.6c0,0.1,0,0.1-0.2,0.1h-0.2V5.8z"/>
		</g>
	</g>
</g>
</svg>
